<svg version="1.1" xmlns="http://www.w3.org/2000/svg" xmlns:xlink="http://www.w3.org/1999/xlink" width="171" height="467"><defs/><g><text fill="#eeeeee" stroke="none" font-family="Arial" font-size="24px" font-style="normal" font-weight="normal" text-decoration="none" x="0" y="0">UNREGISTERED</text><text fill="#eeeeee" stroke="none" font-family="Arial" font-size="24px" font-style="normal" font-weight="normal" text-decoration="none" x="0" y="30">UNREGISTERED</text><text fill="#eeeeee" stroke="none" font-family="Arial" font-size="24px" font-style="normal" font-weight="normal" text-decoration="none" x="0" y="60">UNREGISTERED</text><text fill="#eeeeee" stroke="none" font-family="Arial" font-size="24px" font-style="normal" font-weight="normal" text-decoration="none" x="0" y="90">UNREGISTERED</text><text fill="#eeeeee" stroke="none" font-family="Arial" font-size="24px" font-style="normal" font-weight="normal" text-decoration="none" x="0" y="120">UNREGISTERED</text><text fill="#eeeeee" stroke="none" font-family="Arial" font-size="24px" font-style="normal" font-weight="normal" text-decoration="none" x="0" y="150">UNREGISTERED</text><text fill="#eeeeee" stroke="none" font-family="Arial" font-size="24px" font-style="normal" font-weight="normal" text-decoration="none" x="0" y="180">UNREGISTERED</text><text fill="#eeeeee" stroke="none" font-family="Arial" font-size="24px" font-style="normal" font-weight="normal" text-decoration="none" x="0" y="210">UNREGISTERED</text><text fill="#eeeeee" stroke="none" font-family="Arial" font-size="24px" font-style="normal" font-weight="normal" text-decoration="none" x="0" y="240">UNREGISTERED</text><text fill="#eeeeee" stroke="none" font-family="Arial" font-size="24px" font-style="normal" font-weight="normal" text-decoration="none" x="0" y="270">UNREGISTERED</text><text fill="#eeeeee" stroke="none" font-family="Arial" font-size="24px" font-style="normal" font-weight="normal" text-decoration="none" x="0" y="300">UNREGISTERED</text><text fill="#eeeeee" stroke="none" font-family="Arial" font-size="24px" font-style="normal" font-weight="normal" text-decoration="none" x="0" y="330">UNREGISTERED</text><text fill="#eeeeee" stroke="none" font-family="Arial" font-size="24px" font-style="normal" font-weight="normal" text-decoration="none" x="0" y="360">UNREGISTERED</text><text fill="#eeeeee" stroke="none" font-family="Arial" font-size="24px" font-style="normal" font-weight="normal" text-decoration="none" x="0" y="390">UNREGISTERED</text><text fill="#eeeeee" stroke="none" font-family="Arial" font-size="24px" font-style="normal" font-weight="normal" text-decoration="none" x="0" y="420">UNREGISTERED</text><text fill="#eeeeee" stroke="none" font-family="Arial" font-size="24px" font-style="normal" font-weight="normal" text-decoration="none" x="0" y="450">UNREGISTERED</text><g transform="translate(-86,-46) scale(1,1)"><rect fill="#C0C0C0" stroke="none" x="129" y="63" width="125" height="44" opacity="0.2"/></g><g transform="translate(-86,-46) scale(1,1)"><rect fill="#ffffff" stroke="none" x="122" y="56" width="125" height="44"/></g><g transform="translate(-86,-46) scale(1,1)"><path fill="none" stroke="#000000" d="M 122 56 L 247 56 L 247 100 L 122 100 L 122 56 Z Z" stroke-miterlimit="10"/></g><g transform="translate(-86,-46) scale(1,1)"><rect fill="#ffffff" stroke="none" x="112" y="63" width="20" height="10"/></g><g transform="translate(-86,-46) scale(1,1)"><path fill="none" stroke="#000000" d="M 112 63 L 132 63 L 132 73 L 112 73 L 112 63 Z Z" stroke-miterlimit="10"/></g><g transform="translate(-86,-46) scale(1,1)"><rect fill="#ffffff" stroke="none" x="112" y="83" width="20" height="10"/></g><g transform="translate(-86,-46) scale(1,1)"><path fill="none" stroke="#000000" d="M 112 83 L 132 83 L 132 93 L 112 93 L 112 83 Z Z" stroke-miterlimit="10"/></g><g transform="translate(-86,-46) scale(1,1)"><g><path fill="none" stroke="none"/><text fill="#000000" stroke="none" font-family="Arial" font-size="13px" font-style="normal" font-weight="bold" text-decoration="none" x="183" y="75.5">UI</text></g></g><g transform="translate(-86,-46) scale(1,1)"><rect fill="#C0C0C0" stroke="none" x="129" y="199" width="125" height="47" opacity="0.2"/></g><g transform="translate(-86,-46) scale(1,1)"><rect fill="#ffffff" stroke="none" x="122" y="192" width="125" height="47"/></g><g transform="translate(-86,-46) scale(1,1)"><path fill="none" stroke="#000000" d="M 122 192 L 247 192 L 247 239 L 122 239 L 122 192 Z Z" stroke-miterlimit="10"/></g><g transform="translate(-86,-46) scale(1,1)"><rect fill="#ffffff" stroke="none" x="112" y="199" width="20" height="10"/></g><g transform="translate(-86,-46) scale(1,1)"><path fill="none" stroke="#000000" d="M 112 199 L 132 199 L 132 209 L 112 209 L 112 199 Z Z" stroke-miterlimit="10"/></g><g transform="translate(-86,-46) scale(1,1)"><rect fill="#ffffff" stroke="none" x="112" y="219" width="20" height="10"/></g><g transform="translate(-86,-46) scale(1,1)"><path fill="none" stroke="#000000" d="M 112 219 L 132 219 L 132 229 L 112 229 L 112 219 Z Z" stroke-miterlimit="10"/></g><g transform="translate(-86,-46) scale(1,1)"><g><path fill="none" stroke="none"/><text fill="#000000" stroke="none" font-family="Arial" font-size="13px" font-style="normal" font-weight="bold" text-decoration="none" x="164.575927734375" y="211.5">Services</text></g></g><g transform="translate(-86,-46) scale(1,1)"><rect fill="#C0C0C0" stroke="none" x="129" y="343" width="125" height="47" opacity="0.2"/></g><g transform="translate(-86,-46) scale(1,1)"><rect fill="#ffffff" stroke="none" x="122" y="336" width="125" height="47"/></g><g transform="translate(-86,-46) scale(1,1)"><path fill="none" stroke="#000000" d="M 122 336 L 247 336 L 247 383 L 122 383 L 122 336 Z Z" stroke-miterlimit="10"/></g><g transform="translate(-86,-46) scale(1,1)"><rect fill="#ffffff" stroke="none" x="112" y="343" width="20" height="10"/></g><g transform="translate(-86,-46) scale(1,1)"><path fill="none" stroke="#000000" d="M 112 343 L 132 343 L 132 353 L 112 353 L 112 343 Z Z" stroke-miterlimit="10"/></g><g transform="translate(-86,-46) scale(1,1)"><rect fill="#ffffff" stroke="none" x="112" y="363" width="20" height="10"/></g><g transform="translate(-86,-46) scale(1,1)"><path fill="none" stroke="#000000" d="M 112 363 L 132 363 L 132 373 L 112 373 L 112 363 Z Z" stroke-miterlimit="10"/></g><g transform="translate(-86,-46) scale(1,1)"><g><path fill="none" stroke="none"/><text fill="#000000" stroke="none" font-family="Arial" font-size="13px" font-style="normal" font-weight="bold" text-decoration="none" x="175.41455078125" y="355.5">DAO</text></g></g><g transform="translate(-86,-46) scale(1,1)"><rect fill="#C0C0C0" stroke="none" x="113" y="463" width="133" height="47" opacity="0.2"/></g><g transform="translate(-86,-46) scale(1,1)"><rect fill="#ffffff" stroke="none" x="106" y="456" width="133" height="47"/></g><g transform="translate(-86,-46) scale(1,1)"><path fill="none" stroke="#000000" d="M 106 456 L 239 456 L 239 503 L 106 503 L 106 456 Z Z" stroke-miterlimit="10"/></g><g transform="translate(-86,-46) scale(1,1)"><rect fill="#ffffff" stroke="none" x="96" y="463" width="20" height="10"/></g><g transform="translate(-86,-46) scale(1,1)"><path fill="none" stroke="#000000" d="M 96 463 L 116 463 L 116 473 L 96 473 L 96 463 Z Z" stroke-miterlimit="10"/></g><g transform="translate(-86,-46) scale(1,1)"><rect fill="#ffffff" stroke="none" x="96" y="483" width="20" height="10"/></g><g transform="translate(-86,-46) scale(1,1)"><path fill="none" stroke="#000000" d="M 96 483 L 116 483 L 116 493 L 96 493 L 96 483 Z Z" stroke-miterlimit="10"/></g><g transform="translate(-86,-46) scale(1,1)"><g><path fill="none" stroke="none"/><text fill="#000000" stroke="none" font-family="Arial" font-size="13px" font-style="normal" font-weight="bold" text-decoration="none" x="168.470458984375" y="475.5">DB</text></g></g><g transform="translate(-86,-46) scale(1,1)"><path fill="none" stroke="#000000" d="M 179 101 L 179 191" stroke-miterlimit="10" stroke-dasharray="3"/></g><g transform="translate(-86,-46) scale(1,1)"><path fill="none" stroke="#000000" d="M 174.790482243984 180.83732514237585 L 179 191 L 183.209517756016 180.83732514237585" stroke-miterlimit="10"/></g><g transform="translate(-86,-46) scale(1,1)"><path fill="none" stroke="#000000" d="M 179 240 L 179 335" stroke-miterlimit="10" stroke-dasharray="3"/></g><g transform="translate(-86,-46) scale(1,1)"><path fill="none" stroke="#000000" d="M 174.790482243984 324.83732514237585 L 179 335 L 183.209517756016 324.83732514237585" stroke-miterlimit="10"/></g><g transform="translate(-86,-46) scale(1,1)"><path fill="none" stroke="#000000" d="M 177 384 L 169 455" stroke-miterlimit="10" stroke-dasharray="3"/></g><g transform="translate(-86,-46) scale(1,1)"><path fill="none" stroke="#000000" d="M 165.95484190241055 444.4299000874786 L 169 455 L 174.3209373853726 445.3725587334461" stroke-miterlimit="10"/></g></g></svg>